<svg xmlns="http://www.w3.org/2000/svg" xmlns:xlink="http://www.w3.org/1999/xlink" version="1.1" id="testClassId" class="tileImageSVG areaApproachSVG" x="0" y="0" width="46" height="46" viewBox="0 0 46 46" xml:space="preserve" enable-background="new 0 0 46 46">
  <style>
  .grayLine
  {
    fill: #ABABAB;
  }
  </style>
  <g class="pointer">
    <path class="grayLine pointerLine" d="M22.99 0.47c-7.44 0-13.47 6.03-13.47 13.47 0 5.34 6.93 15.54 10.85 20.89 0.61 0.84 1.59 1.33 2.62 1.33 1.03 0 2.01-0.49 2.62-1.33 3.92-5.35 10.85-15.55 10.85-20.89C36.46 6.5 30.43 0.47 22.99 0.47zM22.99 22.29c-4.39 0-7.97-3.57-7.97-7.97 0-4.39 3.58-7.97 7.97-7.97 4.39 0 7.97 3.58 7.97 7.97C30.96 18.72 27.39 22.29 22.99 22.29z"/>
    <path class="grayLine pointerLine" d="M22.99 9.48c-2.67 0-4.85 2.17-4.85 4.85 0 2.67 2.17 4.85 4.85 4.85 2.67 0 4.85-2.17 4.85-4.85C27.84 11.65 25.66 9.48 22.99 9.48z"/>
  </g>
</svg>